<svg viewBox="0 0 224 224" fill="none" xmlns="http://www.w3.org/2000/svg">
  <g clip-path="url(#clip0_505_5)">
    <path fill-rule="evenodd" clip-rule="evenodd" d="M208.979 167.991C178.056 221.55 109.569 239.901 56.0093 208.979C2.44951 178.056 -15.9014 109.569 15.0213 56.0093C45.9441 2.44951 114.431 -15.9014 167.991 15.0213C221.55 45.9441 239.901 114.431 208.979 167.991ZM35.7052 184.154C29.9638 169.391 29.0031 150.536 32.8872 130.242C27.1675 124.879 22.1166 119.513 17.8303 114.256C13.7802 109.289 10.372 104.37 7.72571 99.5969C4.09083 130.28 14.2172 161.451 35.7052 184.154ZM9.90682 87.4222C12.1098 94.0693 16.6206 101.697 23.2545 109.833C26.5697 113.899 30.385 118.055 34.6529 122.24C36.1532 116.23 38.0655 110.127 40.3916 103.997C40.7446 104.505 41.144 104.984 41.5871 105.427C42.9061 106.746 44.54 107.677 46.3122 108.149C43.8773 114.783 41.9565 121.355 40.5414 127.772C44.3205 131.18 48.3839 134.589 52.706 137.966C52.5773 138.623 52.5099 139.302 52.5099 139.996V146.628C47.7391 143.053 43.2338 139.422 39.0245 135.773C37.8976 142.897 37.4188 149.77 37.5754 156.255C38.0817 177.226 45.1093 193.053 57.0257 201.341L66.7935 184.423C67.2401 186.297 68.1979 188.028 69.5823 189.413C70.0861 189.916 70.6359 190.364 71.2218 190.75L63.1432 204.743C76.1431 210.356 92.9488 208.368 110.887 198.581C116.582 195.474 122.294 191.623 127.9 187.085C119.38 184.139 110.515 180.496 101.502 176.193V168.415C112.744 173.95 123.734 178.421 134.07 181.772C135.235 180.707 136.392 179.613 137.541 178.49H146.994C147.108 178.49 147.222 178.488 147.335 178.484C145.517 180.427 143.672 182.301 141.806 184.105C147.564 185.708 153.071 186.935 158.25 187.773C168.612 189.45 177.473 189.542 184.331 188.127C191.46 181.348 197.749 173.444 202.917 164.491C210.279 151.741 214.662 138.088 216.282 124.339C210.834 124.431 204.88 123.939 198.565 122.917C186.197 120.915 172.201 116.841 157.492 110.864V103.291C165.012 106.447 172.329 109.09 179.315 111.201C184.411 95.8738 186.745 80.9994 186.425 67.7456C185.932 47.317 179.25 31.769 167.889 23.3173L157.472 41.3604C157.314 38.8141 156.232 36.4037 154.418 34.5892C154.183 34.3546 153.938 34.1322 153.685 33.9225L161.884 19.7204C148.749 13.5443 131.528 15.3721 113.113 25.419C104.109 30.3316 95.0597 37.105 86.4577 45.5119H77.0058C76.8917 45.5119 76.7778 45.5138 76.6641 45.5175C95.3136 25.5891 116.731 12.8676 136.34 9.84974C108.271 3.14963 78.794 8.44328 54.9537 23.8428C57.3791 28.3235 60.6378 33.1012 64.6879 38.0683C66.9857 40.8864 69.5239 43.748 72.2865 46.6325C71.2958 47.131 70.3814 47.7879 69.5825 48.5867C68.6777 49.4915 67.9552 50.5445 67.4384 51.6886C64.4707 48.6007 61.7396 45.5277 59.2637 42.4911C55.221 37.5331 51.8179 32.6229 49.1737 27.8584C38.0763 36.1362 28.444 46.7582 21.0825 59.5088C15.9137 68.4614 12.2134 77.8588 9.90682 87.4222ZM174.878 196.103C150.123 214.592 118.066 221.408 87.6611 214.15C103.317 211.741 120.126 203.146 135.759 189.635C143.263 191.907 150.436 193.598 157.132 194.682C163.458 195.706 169.422 196.198 174.878 196.103ZM216.87 117.325C211.777 117.465 206.01 117.032 199.683 116.008C195.356 115.308 190.799 114.336 186.058 113.1C195.131 85.6334 195.829 59.2182 188.295 39.8466C208.132 60.8047 218.286 88.9795 216.87 117.325Z" fill="url(#paint0_linear_505_5)" />
    <path fill-rule="evenodd" clip-rule="evenodd" d="M68.2917 87.5231V79.2604V75.2462H80.7361L80.7354 67.3027L80.7361 62.9693H93.1804V124.354L105.625 124.354V136.631H93.1804V173.462H80.7361L80.7354 156.835L80.7361 149.651V148.908L79.526 148.908H68.291L68.2917 141.55V136.631H80.7361V87.5231H68.2917ZM118.069 75.2462H130.384L130.513 75.2464V87.3024L130.514 87.5231V94.1068L130.513 101.064L130.514 112.077H105.625V124.354L130.514 124.354V161.185H142.958V148.908H152.716L155.401 148.908L155.402 136.631H160.388L167.463 136.631L167.846 136.631V124.354H155.402V136.631L142.958 136.631V50.6924H130.514V62.9693H118.069V75.2462ZM118.069 75.2462L118.068 87.5234L107.326 87.5231H105.625L105.624 86.4003L105.625 78.9521V75.2462H118.069ZM55.8457 88.2416L55.8457 99.8003L57.1005 99.8001H68.2908V87.5231H55.8465L55.8457 88.2416Z" fill="white" />
  </g>
  <defs>
    <linearGradient id="paint0_linear_505_5" x1="30.1538" y1="30.1538" x2="110.165" y2="227.733" gradientUnits="userSpaceOnUse">
      <stop stop-color="#FFE27D" />
      <stop offset="0.505208" stop-color="#64E3FF" />
      <stop offset="1" stop-color="#9192FF" />
    </linearGradient>
    <clipPath id="clip0_505_5">
      <rect width="224" height="224" fill="white" />
    </clipPath>
  </defs>
</svg>